<svg xmlns="http://www.w3.org/2000/svg" xmlns:xlink="http://www.w3.org/1999/xlink" width="799.087" height="438.89" viewBox="0 0 799.087 438.89">
  <defs>
    <clipPath id="clip-demo-hero-image">
      <rect width="799.087" height="438.89"/>
    </clipPath>
  </defs>
  <g id="demo-hero-image" clip-path="url(#clip-demo-hero-image)">
    <rect width="799.087" height="438.89" fill="#a19696"/>
    <g id="undraw_wordpress_utxt" transform="translate(-0.5 -0.5)">
      <rect id="Rectangle_2" data-name="Rectangle 2" width="324.55" height="66.776" transform="translate(342.571 69.25)" fill="none" stroke="#3f3d56" stroke-miterlimit="10" stroke-width="1"/>
      <path id="Path_1" data-name="Path 1" d="M250.224,362.718C259.479,348.257,277,338.5,297.094,338.5c29.742,0,53.852,21.378,53.852,47.748,0,16.86-9.856,31.68-24.738,40.176" transform="translate(-101.33 -198.614)" fill="none" stroke="#3f3d56" stroke-miterlimit="10" stroke-width="1"/>
      <rect id="Rectangle_3" data-name="Rectangle 3" width="324.55" height="66.776" transform="translate(319.594 82.175)" fill="#6c63ff"/>
      <ellipse id="Ellipse_1" data-name="Ellipse 1" cx="5.026" cy="5.026" rx="5.026" ry="5.026" transform="translate(109.404 8.398)" fill="#6c63ff"/>
      <ellipse id="Ellipse_2" data-name="Ellipse 2" cx="5.026" cy="5.026" rx="5.026" ry="5.026" transform="translate(126.637 8.398)" fill="#6c63ff"/>
      <ellipse id="Ellipse_3" data-name="Ellipse 3" cx="5.026" cy="5.026" rx="5.026" ry="5.026" transform="translate(143.87 8.398)" fill="#6c63ff"/>
      <rect id="Rectangle_4" data-name="Rectangle 4" width="603.145" height="392.039" transform="translate(100.788 0.5)" fill="none" stroke="#3f3d56" stroke-miterlimit="10" stroke-width="1"/>
      <line id="Line_1" data-name="Line 1" x2="603.145" transform="translate(100.788 22.281)" fill="none" stroke="#3f3d56" stroke-miterlimit="10" stroke-width="1"/>
      <ellipse id="Ellipse_4" data-name="Ellipse 4" cx="5.026" cy="5.026" rx="5.026" ry="5.026" transform="translate(110.84 6.244)" fill="none" stroke="#3f3d56" stroke-miterlimit="10" stroke-width="1"/>
      <ellipse id="Ellipse_5" data-name="Ellipse 5" cx="5.026" cy="5.026" rx="5.026" ry="5.026" transform="translate(128.073 6.244)" fill="none" stroke="#3f3d56" stroke-miterlimit="10" stroke-width="1"/>
      <ellipse id="Ellipse_6" data-name="Ellipse 6" cx="5.026" cy="5.026" rx="5.026" ry="5.026" transform="translate(145.306 6.244)" fill="none" stroke="#3f3d56" stroke-miterlimit="10" stroke-width="1"/>
      <path id="Path_2" data-name="Path 2" d="M66.708,336.752A15.523,15.523,0,1,0,47.58,313.845l5.814,5.494-7.469-2.322a15.464,15.464,0,0,0,.307,11.826,15.221,15.221,0,0,0,2.264,3.647A15.52,15.52,0,0,0,66.708,336.752Z" transform="translate(-43.435 -189.741)" fill="#57b894"/>
      <path id="Path_3" data-name="Path 3" d="M150.4,381.1c-5.669-3.977-5.67-12.327-4.262-19.107s3.558-14.177.361-20.32c-4.594-8.828-16.669-9.359-26.576-10.3a93.453,93.453,0,0,1-21.576-4.677,25.212,25.212,0,0,1-7.894-3.966c-3.3-2.7-5.237-6.679-7.046-10.541q-9.035-19.3-17.153-39" transform="translate(-49.457 -180.195)" fill="none" stroke="#3f3d56" stroke-miterlimit="10" stroke-width="1"/>
      <path id="Path_4" data-name="Path 4" d="M65.366,334.068a15.523,15.523,0,1,0-19.128-22.907l5.814,5.494-7.469-2.321a15.464,15.464,0,0,0,.307,11.826,15.222,15.222,0,0,0,2.264,3.647A15.52,15.52,0,0,0,65.366,334.068Z" transform="translate(-43.056 -188.984)" fill="none" stroke="#3f3d56" stroke-miterlimit="10" stroke-width="1"/>
      <path id="Path_5" data-name="Path 5" d="M47.058,277.22A15.5,15.5,0,0,1,48.3,262.381l6.183,4.594-3.816-7.4a15.521,15.521,0,1,1-3.609,17.64Z" transform="translate(-43.669 -175.185)" fill="#57b894"/>
      <path id="Path_6" data-name="Path 6" d="M45.269,273.643A15.5,15.5,0,0,1,46.511,258.8l6.183,4.594L48.878,256a15.521,15.521,0,1,1-3.609,17.64Z" transform="translate(-43.164 -174.177)" fill="none" stroke="#3f3d56" stroke-miterlimit="10" stroke-width="1"/>
      <path id="Path_7" data-name="Path 7" d="M129.847,345.333a15.521,15.521,0,0,0-9.215-29.433l2.932,5.683-6.254-4.649a.28.28,0,0,0-.039.017,15.522,15.522,0,1,0,12.575,28.383Z" transform="translate(-61.237 -192.162)" fill="#57b894"/>
      <path id="Path_8" data-name="Path 8" d="M127.909,341.83a15.521,15.521,0,0,0-9.215-29.433l2.932,5.683-6.254-4.649a.266.266,0,0,0-.039.017,15.522,15.522,0,1,0,12.575,28.383Z" transform="translate(-60.69 -191.174)" fill="none" stroke="#3f3d56" stroke-miterlimit="10" stroke-width="1"/>
      <path id="Path_9" data-name="Path 9" d="M144.548,387.478a15.515,15.515,0,1,0-6.261-10.84l12.2,2.719-10.643,2.559A15.377,15.377,0,0,0,144.548,387.478Z" transform="translate(-69.742 -204.519)" fill="#57b894"/>
      <path id="Path_10" data-name="Path 10" d="M143.206,384.794a15.515,15.515,0,1,0-6.261-10.84l12.2,2.719L138.5,379.232A15.378,15.378,0,0,0,143.206,384.794Z" transform="translate(-69.363 -203.762)" fill="none" stroke="#3f3d56" stroke-miterlimit="10" stroke-width="1"/>
      <path id="Path_11" data-name="Path 11" d="M1081.5,591.216a14.944,14.944,0,1,0,5.987-28.1l-.708,7.668-2.679-7.037a14.887,14.887,0,0,0-8.775,7.259,14.647,14.647,0,0,0-1.418,3.882A14.94,14.94,0,0,0,1081.5,591.216Z" transform="translate(-333.49 -261.942)" fill="#57b894"/>
      <path id="Path_12" data-name="Path 12" d="M1092.024,678.586c-.355-6.657,5.969-11.618,11.941-14.58s12.853-5.728,15.607-11.8c3.958-8.725-2.813-18.187-7.985-26.252a89.955,89.955,0,0,1-9.276-19.122,24.267,24.267,0,0,1-1.686-8.336c.083-4.1,1.948-7.935,3.8-11.6q9.248-18.308,19.354-36.166" transform="translate(-338.689 -258.459)" fill="none" stroke="#3f3d56" stroke-miterlimit="10" stroke-width="1"/>
      <path id="Path_13" data-name="Path 13" d="M1082.737,588.606a14.944,14.944,0,1,0,5.988-28.1l-.708,7.668-2.679-7.037a14.889,14.889,0,0,0-8.775,7.259,14.658,14.658,0,0,0-1.417,3.882A14.941,14.941,0,0,0,1082.737,588.606Z" transform="translate(-333.839 -261.206)" fill="none" stroke="#3f3d56" stroke-miterlimit="10" stroke-width="1"/>
      <path id="Path_14" data-name="Path 14" d="M1114.923,540.981a14.926,14.926,0,0,1,11.978-7.875l.194,7.412,3.335-7.284a14.942,14.942,0,1,1-15.506,7.747Z" transform="translate(-344.656 -253.489)" fill="#57b894"/>
      <path id="Path_15" data-name="Path 15" d="M1116.573,537.5a14.927,14.927,0,0,1,11.978-7.875l.193,7.412,3.335-7.284a14.942,14.942,0,1,1-15.507,7.747Z" transform="translate(-345.122 -252.508)" fill="none" stroke="#3f3d56" stroke-miterlimit="10" stroke-width="1"/>
      <path id="Path_16" data-name="Path 16" d="M1112.515,644.138a14.942,14.942,0,0,0,16.821-24.467l-2.562,5.6-.194-7.5a.292.292,0,0,0-.035-.019,14.943,14.943,0,1,0-14.029,26.388Z" transform="translate(-342.234 -276.863)" fill="#57b894"/>
      <path id="Path_17" data-name="Path 17" d="M1114.015,640.589a14.942,14.942,0,0,0,16.821-24.467l-2.563,5.6-.194-7.5a.263.263,0,0,0-.035-.02,14.943,14.943,0,1,0-14.029,26.388Z" transform="translate(-342.657 -275.862)" fill="none" stroke="#3f3d56" stroke-miterlimit="10" stroke-width="1"/>
      <path id="Path_18" data-name="Path 18" d="M1089.326,680.313a14.936,14.936,0,1,0,4.491-11.183l5.188,10.855-8.262-6.541A14.8,14.8,0,0,0,1089.326,680.313Z" transform="translate(-337.93 -290.646)" fill="#57b894"/>
      <path id="Path_19" data-name="Path 19" d="M1090.566,677.7a14.936,14.936,0,1,0,4.491-11.183l5.188,10.855-8.262-6.541a14.8,14.8,0,0,0-1.417,6.869Z" transform="translate(-338.279 -289.91)" fill="none" stroke="#3f3d56" stroke-miterlimit="10" stroke-width="1"/>
      <path id="Path_20" data-name="Path 20" d="M149.708,250.752a15.523,15.523,0,1,0-19.128-22.907l5.814,5.494-7.47-2.322a15.464,15.464,0,0,0,.307,11.826,15.222,15.222,0,0,0,2.264,3.647A15.52,15.52,0,0,0,149.708,250.752Z" transform="translate(-66.838 -165.49)" fill="#57b894"/>
      <path id="Path_21" data-name="Path 21" d="M173.456,236.725c-3.3-2.7-5.237-6.679-7.046-10.541q-9.035-19.3-17.153-39" transform="translate(-72.861 -155.945)" fill="none" stroke="#3f3d56" stroke-miterlimit="10" stroke-width="1"/>
      <path id="Path_22" data-name="Path 22" d="M148.366,248.068a15.523,15.523,0,1,0-19.128-22.907l5.814,5.494-7.469-2.321a15.464,15.464,0,0,0,.307,11.826,15.223,15.223,0,0,0,2.264,3.647A15.52,15.52,0,0,0,148.366,248.068Z" transform="translate(-66.46 -164.734)" fill="none" stroke="#3f3d56" stroke-miterlimit="10" stroke-width="1"/>
      <path id="Path_23" data-name="Path 23" d="M130.058,191.22a15.5,15.5,0,0,1,1.242-14.839l6.183,4.594-3.816-7.4a15.521,15.521,0,1,1-3.609,17.64Z" transform="translate(-67.072 -150.935)" fill="#57b894"/>
      <path id="Path_24" data-name="Path 24" d="M128.269,187.643a15.5,15.5,0,0,1,1.242-14.839l6.183,4.594-3.816-7.4a15.521,15.521,0,1,1-3.609,17.64Z" transform="translate(-66.568 -149.926)" fill="none" stroke="#3f3d56" stroke-miterlimit="10" stroke-width="1"/>
      <line id="Line_2" data-name="Line 2" y2="370.815" transform="translate(290.152 22.281)" fill="none" stroke="#3f3d56" stroke-miterlimit="10" stroke-width="1"/>
      <rect id="Rectangle_5" data-name="Rectangle 5" width="105.55" height="14.36" transform="translate(358.009 204.597)" fill="#f2f2f2"/>
      <rect id="Rectangle_6" data-name="Rectangle 6" width="105.55" height="14.36" transform="translate(523.873 204.597)" fill="#f2f2f2"/>
      <rect id="Rectangle_7" data-name="Rectangle 7" width="105.55" height="14.36" transform="translate(363.753 197.417)" fill="none" stroke="#3f3d56" stroke-miterlimit="10" stroke-width="1"/>
      <rect id="Rectangle_8" data-name="Rectangle 8" width="105.55" height="14.36" transform="translate(358.009 315.891)" fill="#f2f2f2"/>
      <rect id="Rectangle_9" data-name="Rectangle 9" width="105.55" height="14.36" transform="translate(363.753 308.71)" fill="none" stroke="#3f3d56" stroke-miterlimit="10" stroke-width="1"/>
      <rect id="Rectangle_10" data-name="Rectangle 10" width="271.415" height="14.36" transform="translate(358.368 258.808)" fill="#f2f2f2"/>
      <rect id="Rectangle_11" data-name="Rectangle 11" width="271.415" height="14.36" transform="translate(364.112 253.064)" fill="none" stroke="#3f3d56" stroke-miterlimit="10" stroke-width="1"/>
      <rect id="Rectangle_12" data-name="Rectangle 12" width="105.55" height="14.36" transform="translate(529.618 197.417)" fill="none" stroke="#3f3d56" stroke-miterlimit="10" stroke-width="1"/>
      <path id="Path_25" data-name="Path 25" d="M974.068,357.241a14.729,14.729,0,0,0,.863,2.257,38.027,38.027,0,0,1,.469,28.625,55.491,55.491,0,0,1,7.723.454,16.344,16.344,0,0,0,7.631-.841,7.747,7.747,0,0,0,4.824-5.828c.471-3.6-2.146-6.73-4.443-9.459-2.341-2.78-4.6-5.847-5.3-9.473-.761-3.986.323-8.66-2.2-11.765a2.432,2.432,0,0,0-.837-.714,9.612,9.612,0,0,0-6.235.168C974.477,351.846,973.553,354.962,974.068,357.241Z" transform="translate(-305.393 -201.873)" fill="#3f3d56"/>
      <path id="Path_26" data-name="Path 26" d="M1065.352,712.916a18.1,18.1,0,0,1-.846,3.523s-2.609,6-13.339,4.385c-7.009-1.059-6.962-4.344-5.8-6.887a16.43,16.43,0,0,1,1.914-2.979c1.043-1.409.94-6.787,1.306-11.691s2.581-5.158,2.581-5.158l.132,5.521c4.178-5.481,7.1.94,7.1.94s5.941.123,5.215-2.922c-.774-3.244-1.929-8.381-1.929-8.381s2.875,1.334,3.4,2.274-.1,13.521-.573,14.72a8.566,8.566,0,0,0,.68,5.377A2.05,2.05,0,0,1,1065.352,712.916Z" transform="translate(-325.372 -297.523)" fill="#3f3d56"/>
      <path id="Path_27" data-name="Path 27" d="M1065.683,694.253a5.85,5.85,0,0,1-4.091,5.575,7.879,7.879,0,0,1-6.881-1.049,4.039,4.039,0,0,1-1.7-3.787l.166-1.387.6-5.058.827-6.968s8.892-4.529,8.3-2.819c-.223.639.269,3.514.974,6.865.5,2.4,1.109,5.033,1.644,7.269A5.786,5.786,0,0,1,1065.683,694.253Z" transform="translate(-327.684 -294.451)" fill="#fbbebe"/>
      <path id="Path_28" data-name="Path 28" d="M1052.26,698.47s7.7-9.044,14,.822l-1.057,6.32H1052.26Z" transform="translate(-327.48 -299.051)" opacity="0.1"/>
      <path id="Path_29" data-name="Path 29" d="M1052.26,699.343s7.7-9.043,14,.822l-1.057,6.32H1052.26Z" transform="translate(-327.48 -299.297)" fill="#3f3d56"/>
      <ellipse id="Ellipse_7" data-name="Ellipse 7" cx="0.783" cy="0.783" rx="0.783" ry="0.783" transform="translate(734.003 404.057)" fill="#f2f2f2"/>
      <ellipse id="Ellipse_8" data-name="Ellipse 8" cx="0.783" cy="0.783" rx="0.783" ry="0.783" transform="translate(723.994 402.802)" fill="#f2f2f2"/>
      <ellipse id="Ellipse_9" data-name="Ellipse 9" cx="0.783" cy="0.783" rx="0.783" ry="0.783" transform="translate(731.303 409.364)" fill="#f2f2f2"/>
      <ellipse id="Ellipse_10" data-name="Ellipse 10" cx="0.783" cy="0.783" rx="0.783" ry="0.783" transform="translate(724.468 408.443)" fill="#f2f2f2"/>
      <ellipse id="Ellipse_11" data-name="Ellipse 11" cx="0.783" cy="0.783" rx="0.783" ry="0.783" transform="translate(732.818 406.877)" fill="#f2f2f2"/>
      <ellipse id="Ellipse_12" data-name="Ellipse 12" cx="0.783" cy="0.783" rx="0.783" ry="0.783" transform="translate(723.994 405.623)" fill="#f2f2f2"/>
      <ellipse id="Ellipse_13" data-name="Ellipse 13" cx="0.783" cy="0.783" rx="0.783" ry="0.783" transform="translate(730.521 412.275)" fill="#f2f2f2"/>
      <ellipse id="Ellipse_14" data-name="Ellipse 14" cx="0.783" cy="0.783" rx="0.783" ry="0.783" transform="translate(724.468 411.264)" fill="#f2f2f2"/>
      <path id="Path_30" data-name="Path 30" d="M974.544,727.841l-10.649,3.6s-5.637-5.638-4.072-7.36c.667-.736,1.25-3.179,1.694-5.741.144-.808.273-1.632.385-2.415.37-2.546.583-4.685.583-4.685s12.371-5.951,10.336,0a14.654,14.654,0,0,0-.586,5.205,34.536,34.536,0,0,0,.661,5.212A49.585,49.585,0,0,0,974.544,727.841Z" transform="translate(-301.339 -302.974)" fill="#fbbebe"/>
      <path id="Path_31" data-name="Path 31" d="M974.544,731.667l-10.649,3.6s-5.637-5.638-4.072-7.36c.667-.736,1.25-3.179,1.694-5.741a11.127,11.127,0,0,1,1.243,3.47c9.2,5.052,9.355,2.036,9.355,2.036a5.589,5.589,0,0,1,.78-2.189A49.585,49.585,0,0,0,974.544,731.667Z" transform="translate(-301.339 -306.801)" opacity="0.1"/>
      <path id="Path_32" data-name="Path 32" d="M969.569,739.659s-1.842,1.369-7.241,1.566a28.463,28.463,0,0,0-4.212.474,52.619,52.619,0,0,1-17.275.466,37.464,37.464,0,0,1-4.393-.862c-5.559-1.529-1.331-5.049-1.331-5.049s.266-.232.727-.579a15.173,15.173,0,0,1,6.126-2.906c3.483-.548,6.693-6.734,6.693-6.734l2.192-3.956c3.4-2.935,4.582,3.956,4.582,3.956,9.2,5.052,9.355,2.036,9.355,2.036.51-2.7,1.45-2.7,1.45-2.7s2.293,6.173,3.123,7.714a1.531,1.531,0,0,0,.2.313C970.117,733.942,969.569,739.659,969.569,739.659Z" transform="translate(-294.016 -306.57)" fill="#3f3d56"/>
      <ellipse id="Ellipse_15" data-name="Ellipse 15" cx="0.783" cy="0.783" rx="0.783" ry="0.783" transform="translate(660.598 421.265)" fill="#f2f2f2"/>
      <ellipse id="Ellipse_16" data-name="Ellipse 16" cx="0.783" cy="0.783" rx="0.783" ry="0.783" transform="translate(656.114 423.457)" fill="#f2f2f2"/>
      <ellipse id="Ellipse_17" data-name="Ellipse 17" cx="0.783" cy="0.783" rx="0.783" ry="0.783" transform="translate(658.525 422.334)" fill="#f2f2f2"/>
      <ellipse id="Ellipse_18" data-name="Ellipse 18" cx="0.783" cy="0.783" rx="0.783" ry="0.783" transform="translate(653.591 424.749)" fill="#f2f2f2"/>
      <path id="Path_33" data-name="Path 33" d="M973.745,711.241a14.656,14.656,0,0,0-.586,5.205c-2.778-.933-7.329-.771-10.332-.52.37-2.546.583-4.685.583-4.685S975.781,705.29,973.745,711.241Z" transform="translate(-302.263 -302.974)" opacity="0.1"/>
      <path id="Path_34" data-name="Path 34" d="M1064.184,685.624c-3.849,3.774-7.53,4.009-10.1,2.922l.827-6.968s8.892-4.529,8.3-2.819C1062.991,679.4,1063.48,682.273,1064.184,685.624Z" transform="translate(-327.995 -294.451)" opacity="0.1"/>
      <path id="Path_35" data-name="Path 35" d="M967.8,509.451s-6.108,3.445-7.2,10.179-2.975,15.346-4.385,16.912-5.794,6.577-4.072,9.239,2.036,11.745,2.036,11.745-.626,8.143,1.1,10.805,3.132,19.575-.626,24.586c0,0-1.253,11.588-.783,12.684s-2.036,3.915-1.253,6.264,4.541,45.57,4.072,47.292c0,0,11.9-1.722,15.033,1.1a30.844,30.844,0,0,0,0-7.986c-.626-3.289.47-16.286,1.879-19.575s1.723-15.816,1.253-17.069c0,0,2.506-11.118,1.566-13.311s4.072-22.393,4.072-22.393,2.506-4.854,1.879-5.481c0,0,4.072-2.662,3.6-4.7s3.758-4.385,3.758-4.385,3.758,9.239,5.011,10.649,1.3,10.492,2.843,12.371,3.577,11.745,5.613,14.407,10.179,9.709,11.432,17.7c0,0,7.36,11.432,7.047,15.033s8.3,10.179,16.6-2.036a10.851,10.851,0,0,1-4.385-8.926c0-6.107-6.577-25.682-6.577-25.682s-3.758-5.481-2.349-8.143.156-10.492.156-10.492l2.975-4.854s.47-4.7.94-9.552-2.819-10.179-1.253-12.528-.626-14.085-.626-14.085-1.949-20.23-4.855-21.462S967.8,509.451,967.8,509.451Z" transform="translate(-299.139 -246.819)" fill="#3f3d56"/>
      <path id="Path_36" data-name="Path 36" d="M985.6,450.789s-3.217.366-7.122.736c-5.65.532-12.744,1.071-13.59.517-1.428-.939,0-12.841,0-12.841s.492-13,.022-22.08c-.382-7.369,4.5-12.781,6.348-14.56.432-.413.7-.63.7-.63l1.566,1.253,8.926,15.19Z" transform="translate(-302.665 -216.5)" fill="#fbbebe"/>
      <path id="Path_37" data-name="Path 37" d="M1028.883,390.331l-8.769,5.324-14.407,10.962s-14.877-7.83-11.118-12.371a7.041,7.041,0,0,0,1.375-3.072c1.13-5.23-1.375-12.744-1.375-12.744s19.6-26.468,18.479-5.951c-.451,8.243,2.014,12.744,5.124,15.181C1022.823,391.287,1028.883,390.331,1028.883,390.331Z" transform="translate(-311.047 -205.997)" fill="#fbbebe"/>
      <path id="Path_38" data-name="Path 38" d="M1028.883,390.331l-8.769,5.324-14.407,10.962s-14.877-7.83-11.118-12.371a7.041,7.041,0,0,0,1.375-3.072c1.13-5.23-1.375-12.744-1.375-12.744s19.6-26.468,18.479-5.951c-.451,8.243,2.014,12.744,5.124,15.181C1022.823,391.287,1028.883,390.331,1028.883,390.331Z" transform="translate(-311.047 -205.997)" opacity="0.1"/>
      <ellipse id="Ellipse_19" data-name="Ellipse 19" cx="18.136" cy="19.214" rx="18.136" ry="19.214" transform="translate(672.793 141.583)" opacity="0.1"/>
      <ellipse id="Ellipse_20" data-name="Ellipse 20" cx="18.136" cy="19.214" rx="18.136" ry="19.214" transform="translate(672.793 140.957)" fill="#fbbebe"/>
      <path id="Path_39" data-name="Path 39" d="M1028.883,399.355l-8.769,5.324-14.407,10.962s-14.877-7.83-11.118-12.371a7.041,7.041,0,0,0,1.375-3.072c16.411,14.031,21.4-.492,22.228-3.514C1022.823,400.31,1028.883,399.355,1028.883,399.355Z" transform="translate(-311.047 -215.021)" opacity="0.1"/>
      <path id="Path_40" data-name="Path 40" d="M988.172,450.789s-3.216.366-7.122.736c-.153-3.37-.664-7.182-.57-9.505.156-3.915.156-4.385-1.1-6.577s-1.1-3.915-.94-6.734c.15-2.7-.564-3.245-3.1-7.557l-.342-.586c-1.246-2.148-1.6-6.035-1.616-9.706a.1.1,0,0,0,0-.041c0-.874.012-1.735.044-2.556,0-.035,0-.069,0-.1.091-2.48.294-4.595.4-5.6.432-.413.7-.63.7-.63l1.566,1.253,8.926,15.19Z" transform="translate(-305.24 -216.5)" opacity="0.1"/>
      <path id="Path_41" data-name="Path 41" d="M1033.012,401.41c-.012-.006,1.891,1.433,1.879,1.43-5.669-2.446-8.886,9.875-9.747,13.752-.16.714-.238,1.14-.238,1.14s.1,1.04.226,2.693c.423,5.537,1.149,17.937-.539,20.953a4.665,4.665,0,0,0-.4,1.005,21.178,21.178,0,0,0-.194,7.26,72.722,72.722,0,0,0,1.381,8.177s3.759,9.552,2.192,15.816a23.232,23.232,0,0,0-.457,7.1,42,42,0,0,0,.993,6.48c.147.623.247.98.247.98q-3.542,1.212-6.925,2.011a67.183,67.183,0,0,1-13.392,1.813c-21.175.673-35.275-9.474-38.6-12.24-.263-.219-.46-.392-.586-.511-2.193-2.036,2.036-3.6,1.566-5.011s2.142-4.541,2.142-4.541-.576-5.168,1.773-6.264,4.071-4.854,5.4-7.986-.229-11.275-.072-15.19.157-4.385-1.1-6.577-1.1-3.915-.94-6.734c.15-2.7-.564-3.245-3.1-7.557l-.341-.586c-1.246-2.149.7-5.849.684-9.52,0-.013.721.013.718,0,0-.874-1.468-2.051-1.436-2.872,0-.034-.718-.684-.718-.718a23.274,23.274,0,0,0-.344-5.525c12.528-6.42,15.5.269,15.5.269,18.322,15.769,22.481-3.937,22.481-3.937,9.973-3.408,23.089,5.772,23.838,6.3Z" transform="translate(-303.78 -214.763)" fill="#55536e"/>
      <path id="Path_42" data-name="Path 42" d="M964.735,467.233s-1.568,8.363,2.966,13.029a5.1,5.1,0,0,0,5.9,1.014c1.505-.74,3.189-1.839,3.821-3.248C978.665,475.25,974.758,461.673,964.735,467.233Z" transform="translate(-302.727 -234.541)" fill="#fbbebe"/>
      <path id="Path_43" data-name="Path 43" d="M1046.571,451.061a4.67,4.67,0,0,0-.4,1.005l.717-18.309.225-3.649C1047.534,435.645,1048.259,448.045,1046.571,451.061Z" transform="translate(-325.763 -224.446)" opacity="0.1"/>
      <path id="Path_44" data-name="Path 44" d="M1041.05,494.794a23.232,23.232,0,0,0-.457,7.1c-1.015,1.838-1.882,3.4-2.446,4.413-.442.789-.7,1.247-.7,1.247a29.594,29.594,0,0,0-2.54,3.812,7.37,7.37,0,0,0-1.062,3.1c0,2.408-2.427,18.46-13.937,14.466-7.432-2.578-2.687-10.476,1.607-15.75a58.993,58.993,0,0,1,4.579-5s1.328-1.691,2.6-3.461a21.013,21.013,0,0,0,2.252-3.586c.548-1.566,4.162-8.456,4.162-8.456s3.589-7.595,2.806-11.118c-.438-1.973-.485-6.85-.442-10.761a72.739,72.739,0,0,0,1.381,8.177S1042.616,488.53,1041.05,494.794Z" transform="translate(-317.262 -235.92)" opacity="0.1"/>
      <path id="Path_45" data-name="Path 45" d="M1048.285,405.571s5.638,3.915,5.481,14.094-2.036,27.8-2.036,27.8l-1.174,10.962s-1.488,4.463-1.253,5.794-12.3,23.646-12.3,23.646-3.6,4.5-3.6,6.91-2.427,18.458-13.937,14.465,6.186-20.749,6.186-20.749,4.307-5.481,4.855-7.047,4.165-8.456,4.165-8.456,3.588-7.595,2.8-11.118-.313-16.315-.313-16.315l.783-20.015.313-5.089S1041.155,403.536,1048.285,405.571Z" transform="translate(-317.137 -217.479)" fill="#fbbebe"/>
      <path id="Path_46" data-name="Path 46" d="M977.322,456.359l8.545-3.1a4.045,4.045,0,0,1,4.158.861l11.341,10.711s.626,1.719-.209,1.643-13.05-12.291-13.05-12.291L976,458.25h0a2.012,2.012,0,0,1,1.325-1.891Z" transform="translate(-305.977 -230.904)" fill="#6c63ff"/>
      <path id="Path_47" data-name="Path 47" d="M946.356,327.309l11.745-4.256-13.05-12.291-12.11,4.071Z" transform="translate(-262.921 -87.487)" fill="#4b4b5b"/>
      <ellipse id="Ellipse_21" data-name="Ellipse 21" cx="1.044" cy="1.044" rx="1.044" ry="1.044" transform="translate(664.748 272.916)" fill="#f2f2f2"/>
      <ellipse id="Ellipse_22" data-name="Ellipse 22" cx="1.044" cy="1.044" rx="1.044" ry="1.044" transform="translate(657.649 286.33)" fill="#f2f2f2"/>
      <ellipse id="Ellipse_23" data-name="Ellipse 23" cx="1.044" cy="1.044" rx="1.044" ry="1.044" transform="translate(714.36 291.207)" fill="#f2f2f2"/>
      <ellipse id="Ellipse_24" data-name="Ellipse 24" cx="1.044" cy="1.044" rx="1.044" ry="1.044" transform="translate(720.265 310.157)" fill="#f2f2f2"/>
      <ellipse id="Ellipse_25" data-name="Ellipse 25" cx="1.044" cy="1.044" rx="1.044" ry="1.044" transform="translate(717.967 304.824)" fill="#f2f2f2"/>
      <ellipse id="Ellipse_26" data-name="Ellipse 26" cx="1.044" cy="1.044" rx="1.044" ry="1.044" transform="translate(715.969 298.015)" fill="#f2f2f2"/>
      <ellipse id="Ellipse_27" data-name="Ellipse 27" cx="1.044" cy="1.044" rx="1.044" ry="1.044" transform="translate(660.963 279.266)" fill="#f2f2f2"/>
      <ellipse id="Ellipse_28" data-name="Ellipse 28" cx="1.044" cy="1.044" rx="1.044" ry="1.044" transform="translate(653.508 293.295)" fill="#f2f2f2"/>
      <path id="Path_48" data-name="Path 48" d="M1036.6,402.83l0,.009c-5.669-2.446-8.885,9.875-9.747,13.752l-8.9-12.744s-3.652,5.844-15.45,6.734-14.667-8.979-14.667-8.979c-1.619-.125-8.951,13.073-11.613,17.811l-.341-.586c-1.246-2.148-1.6-6.035-1.616-9.706a.088.088,0,0,0,0-.041c.009-.852.025-1.707.044-2.556,0-.034,0-.069,0-.1.128-3.476.473-6.229.473-6.229,12.528-6.42,15.5.269,15.5.269,18.322,15.769,22.481-3.937,22.481-3.937C1022.733,393.118,1035.852,402.3,1036.6,402.83Z" transform="translate(-305.486 -214.763)" fill="#6c63ff"/>
      <path id="Path_49" data-name="Path 49" d="M964.293,565.065c.157.392,13.311,15.581,18.166,16.364S964.293,565.065,964.293,565.065Z" transform="translate(-302.676 -262.501)" opacity="0.1"/>
      <path id="Path_50" data-name="Path 50" d="M975.805,532.617s.133,10.71-3.155,13.128S975.805,532.617,975.805,532.617Z" transform="translate(-304.769 -253.351)" opacity="0.1"/>
      <path id="Path_51" data-name="Path 51" d="M985.426,537.913s-.313,12.606,4.385,15.581C989.81,553.494,981.2,545.116,985.426,537.913Z" transform="translate(-308.306 -254.845)" opacity="0.1"/>
      <path id="Path_52" data-name="Path 52" d="M973.3,628.095s-8.77,6.5-11.2,6.968S973.3,628.095,973.3,628.095Z" transform="translate(-301.979 -280.274)" opacity="0.1"/>
      <path id="Path_53" data-name="Path 53" d="M974.327,342.756c-1.889,1.592-1.209,4.9.721,6.439s4.57,1.779,7.04,1.843c4.754.123,9.585-.153,14.195,1.016a11.505,11.505,0,0,1,5.445,2.789,12.254,12.254,0,0,1,2.83,5.63,30.835,30.835,0,0,1,.968,9.437,32.743,32.743,0,0,0-.14,6.4,20.468,20.468,0,0,0,2,5.694,236.607,236.607,0,0,0,12.1,22.441,4.178,4.178,0,0,0,1.576,1.725c1.131.546,2.46-.008,3.59-.556a26.968,26.968,0,0,1-1.108-6.8,3.04,3.04,0,0,0,3.213-1.123,8.914,8.914,0,0,0,1.464-3.291l2.107-7.26c.651-2.245,1.618-4.822,3.86-5.483a13.985,13.985,0,0,0,2.368-.552,3.032,3.032,0,0,0,1.463-2.987,6.453,6.453,0,0,0-1.414-3.188c-3.17-4.265-8.456-6.795-10.931-11.5-2.125-4.039-1.756-8.9-1.055-13.408s1.677-9.146.6-13.58a17.994,17.994,0,0,0-6.983-10,28.168,28.168,0,0,0-11.422-4.7,11.4,11.4,0,0,0-5.773.039c-1.424.481-2.644,1.431-4.033,2-3.157,1.3-6.8.523-10.11,1.351a13.6,13.6,0,0,0-7.478,5.4,28.686,28.686,0,0,0-3.916,8.516c-.61,1.991.369,2.788-1.41,3.87" transform="translate(-305.19 -193.79)" opacity="0.1"/>
      <path id="Path_54" data-name="Path 54" d="M974.763,341.884c-1.889,1.592-1.209,4.9.722,6.439s4.57,1.779,7.04,1.843c4.754.123,9.585-.153,14.194,1.016a11.507,11.507,0,0,1,5.445,2.789,12.253,12.253,0,0,1,2.83,5.63,30.828,30.828,0,0,1,.968,9.437,32.751,32.751,0,0,0-.14,6.4,20.469,20.469,0,0,0,2,5.694,236.526,236.526,0,0,0,12.1,22.441,4.177,4.177,0,0,0,1.576,1.725c1.131.546,2.46-.008,3.59-.556a26.96,26.96,0,0,1-1.108-6.8,3.04,3.04,0,0,0,3.213-1.123,8.921,8.921,0,0,0,1.464-3.291l2.107-7.26c.651-2.245,1.618-4.822,3.86-5.483a13.978,13.978,0,0,0,2.368-.552,3.031,3.031,0,0,0,1.463-2.987,6.452,6.452,0,0,0-1.414-3.188c-3.17-4.265-8.457-6.795-10.931-11.5-2.125-4.039-1.756-8.9-1.055-13.409s1.677-9.146.6-13.58a17.993,17.993,0,0,0-6.983-10,28.166,28.166,0,0,0-11.422-4.7,11.4,11.4,0,0,0-5.773.039c-1.424.481-2.643,1.431-4.033,2-3.157,1.3-6.8.523-10.11,1.351a13.6,13.6,0,0,0-7.478,5.4,28.684,28.684,0,0,0-3.916,8.516c-.61,1.991.368,2.788-1.41,3.87" transform="translate(-305.313 -193.544)" fill="#3f3d56"/>
      <path id="Path_55" data-name="Path 55" d="M972.471,466.909s14.329-9.552,18.4-3.68S978.265,476.3,978.265,476.3Z" transform="translate(-304.982 -233.247)" fill="#fbbebe"/>
      <path id="Path_56" data-name="Path 56" d="M978.7,402.212c-.052.921-.229,2.05-.742,2.217,1.337-.032,2.655.952,3.982.658a4.059,4.059,0,0,0,2.514-2.592,1.206,1.206,0,0,1,.336-.553c.14-.082.291,0,.43.082a41.8,41.8,0,0,1,7.208,5.441c.734.684,1.549,1.424,2.353,1.067A17.963,17.963,0,0,0,993.245,401a9.628,9.628,0,0,0-4.1-4.491,12.573,12.573,0,0,0-4.827-1.256,4.837,4.837,0,0,1-2.081-.518c-.712-.418-2.984-3.134-3.495-1.156a21.721,21.721,0,0,0,.079,4.045Q978.833,399.921,978.7,402.212Z" transform="translate(-306.53 -213.943)" fill="#3f3d56"/>
      <g id="Group_1" data-name="Group 1" transform="translate(668.421 134.696)" opacity="0.1">
        <path id="Path_57" data-name="Path 57" d="M1022.869,412.009a4.176,4.176,0,0,1-1.576-1.725,236.567,236.567,0,0,1-12.1-22.441,20.458,20.458,0,0,1-2-5.694,32.724,32.724,0,0,1,.14-6.4,30.828,30.828,0,0,0-.968-9.437,12.253,12.253,0,0,0-2.83-5.63,11.508,11.508,0,0,0-5.445-2.789c-4.609-1.169-9.441-.894-14.195-1.016-2.47-.064-5.109-.3-7.04-1.843a4.864,4.864,0,0,1-1.608-5.159,3.109,3.109,0,0,1-.4.32c-1.843,1.6-1.162,4.873.756,6.405s4.57,1.779,7.04,1.842c4.754.123,9.585-.153,14.195,1.016a11.508,11.508,0,0,1,5.445,2.789,12.253,12.253,0,0,1,2.83,5.63,30.828,30.828,0,0,1,.968,9.437,32.742,32.742,0,0,0-.14,6.4,20.466,20.466,0,0,0,2,5.694,236.478,236.478,0,0,0,12.1,22.441,4.175,4.175,0,0,0,1.576,1.725c1.131.546,2.46-.008,3.59-.556-.094-.315-.18-.632-.263-.95A2.861,2.861,0,0,1,1022.869,412.009Z" transform="translate(-973.77 -336.518)"/>
        <path id="Path_58" data-name="Path 58" d="M974.989,350.444c.076-.046.14-.091.206-.136.012-.011.022-.023.034-.034Z" transform="translate(-974.114 -336.63)"/>
        <path id="Path_59" data-name="Path 59" d="M976.882,343.384c-.066.045-.131.09-.206.136l.241-.17c-.013.01-.022.023-.034.034,1.485-1.016.62-1.828,1.2-3.734a28.973,28.973,0,0,1,3.822-8.378,16.653,16.653,0,0,0-1.159,1.427,28.683,28.683,0,0,0-3.916,8.516,13.332,13.332,0,0,0-.306,2.538A2.99,2.99,0,0,1,976.882,343.384Z" transform="translate(-974.547 -331.272)"/>
        <path id="Path_60" data-name="Path 60" d="M1061.771,401.491a13.982,13.982,0,0,1-2.368.552,4.567,4.567,0,0,0-2.62,2.313,3.761,3.761,0,0,1,1.367-.747,13.975,13.975,0,0,0,2.368-.552,2.671,2.671,0,0,0,1.3-1.591C1061.8,401.474,1061.786,401.483,1061.771,401.491Z" transform="translate(-997.177 -351.065)"/>
        <path id="Path_61" data-name="Path 61" d="M1045.61,425.957q.027.814.1,1.626a3.527,3.527,0,0,0,1.856-1.182,5.242,5.242,0,0,0,.623-.968A2.792,2.792,0,0,1,1045.61,425.957Z" transform="translate(-994.027 -357.823)"/>
      </g>
      <path id="Path_62" data-name="Path 62" d="M967.644,466.021s3.778-1.529,6-1.19" transform="translate(-303.621 -234.223)" opacity="0.1"/>
      <path id="Path_63" data-name="Path 63" d="M982.816,490.477s1.918,2.975,11.613,4.228S982.816,490.477,982.816,490.477Z" transform="translate(-307.899 -241.469)" opacity="0.1"/>
      <path id="Path_64" data-name="Path 64" d="M977.96,505.962s8.72,7.673,22.708,4.854S977.96,505.962,977.96,505.962Z" transform="translate(-306.53 -245.835)" opacity="0.1"/>
      <line id="Line_3" data-name="Line 3" y1="22.259" x2="143.605" transform="translate(632.296 417.132)" fill="none" stroke="#3f3d56" stroke-miterlimit="10" stroke-width="1"/>
      <path id="Path_65" data-name="Path 65" d="M224.367,400.382c0,18.763,12.327,34.977,30.2,42.662l-25.563-61.953a42.64,42.64,0,0,0-4.64,19.291Zm89.767-2.392c0-5.858-2.379-9.915-4.419-13.073-2.717-3.9-5.262-7.211-5.262-11.116a8.72,8.72,0,0,1,9-8.413c.238,0,.463.026.7.038a57.424,57.424,0,0,0-36.19-12.443c-18.722,0-35.193,8.5-44.776,21.366,1.257.033,2.443.056,3.449.056,5.605,0,14.282-.6,14.282-.6,2.889-.151,3.229,3.6.345,3.9,0,0-2.9.3-6.135.452L264.638,429.5l11.728-31.111-8.351-20.234c-2.886-.15-5.62-.452-5.62-.452-2.888-.15-2.549-4.055.339-3.9,0,0,8.85.6,14.116.6,5.6,0,14.282-.6,14.282-.6,2.891-.151,3.23,3.6.344,3.9,0,0-2.909.3-6.134.452l19.366,50.955,5.344-15.8c2.318-6.556,4.081-11.265,4.081-15.323Z" transform="translate(-94.04 -202.697)" fill="#6c63ff"/>
      <path id="Path_66" data-name="Path 66" d="M294,414.213l-16.079,41.326a60.276,60.276,0,0,0,32.935-.755,3.858,3.858,0,0,1-.381-.653Zm46.082-26.888a32.25,32.25,0,0,1,.361,4.874c0,4.81-1.016,10.217-4.075,16.979L320,451.04c15.932-8.218,26.648-23.485,26.648-40.973a42.925,42.925,0,0,0-6.565-22.742Z" transform="translate(-109.139 -212.382)" fill="#6c63ff"/>
    </g>
    <rect id="Rectangle_55" data-name="Rectangle 55" width="799" height="438" transform="translate(0.087 0.496)" fill="#090000"/>
  </g>
</svg>
